<svg xmlns="http://www.w3.org/2000/svg" xmlns:xlink="http://www.w3.org/1999/xlink" contentStyleType="text/css" data-diagram-type="CLASS" height="1237px" preserveAspectRatio="none" style="width:1714px;height:1237px;background:#F9F9F9;" version="1.1" viewBox="0 0 1714 1237" width="1714px" zoomAndPan="magnify"><defs/><g><rect fill="#F9F9F9" height="1237" style="stroke:none;stroke-width:1;" width="1714" x="0" y="0"/><!--class Price--><g class="entity" data-entity="Price" data-source-line="3" data-uid="ent0002" id="entity_Price"><rect fill="#F1F1F1" height="85.25" rx="3.5" ry="3.5" style="stroke:#181818;stroke-width:0.5;" width="82.834" x="336.82" y="12.82"/><ellipse cx="359.216" cy="28.82" fill="#7E57C2" rx="11" ry="11" style="stroke:#181818;stroke-width:1;"/><path d="M358.8097,24.6325 L358.8097,32.6169 L359.466,32.6169 Q360.9035,32.6169 361.5129,31.7106 Q362.1379,30.7887 362.1379,28.6169 Q362.1379,26.445 361.5129,25.5387 Q360.9035,24.6325 359.466,24.6325 L358.8097,24.6325 Z M356.3566,22.4294 L358.9816,22.4294 Q362.0129,22.4294 363.341,23.8825 Q364.6847,25.32 364.6847,28.6169 Q364.6847,31.9137 363.341,33.3669 Q362.0129,34.82 358.9816,34.82 L356.3566,34.82 L356.3566,22.4294 Z " fill="#000000"/><text fill="#000000" font-family="sans-serif" font-size="14" lengthAdjust="spacing" textLength="34.3984" x="374.8596" y="33.6667">Price</text><line style="stroke:#181818;stroke-width:0.5;" x1="337.82" x2="418.654" y1="44.82" y2="44.82"/><text fill="#000000" font-family="sans-serif" font-size="14" lengthAdjust="spacing" textLength="70.834" x="342.82" y="61.8151">«typedef»</text><text fill="#000000" font-family="sans-serif" font-size="18" font-weight="bold" lengthAdjust="spacing" textLength="70.2422" x="342.82" y="81.8249">int64_t</text><line style="stroke:#181818;stroke-width:0.5;" x1="337.82" x2="418.654" y1="90.07" y2="90.07"/></g><!--class Quantity--><g class="entity" data-entity="Quantity" data-source-line="8" data-uid="ent0003" id="entity_Quantity"><rect fill="#F1F1F1" height="85.25" rx="3.5" ry="3.5" style="stroke:#181818;stroke-width:0.5;" width="92.498" x="454.98" y="12.82"/><ellipse cx="469.98" cy="28.82" fill="#7E57C2" rx="11" ry="11" style="stroke:#181818;stroke-width:1;"/><path d="M469.5738,24.6325 L469.5738,32.6169 L470.23,32.6169 Q471.6675,32.6169 472.2769,31.7106 Q472.9019,30.7887 472.9019,28.6169 Q472.9019,26.445 472.2769,25.5387 Q471.6675,24.6325 470.23,24.6325 L469.5738,24.6325 Z M467.1206,22.4294 L469.7456,22.4294 Q472.7769,22.4294 474.105,23.8825 Q475.4488,25.32 475.4488,28.6169 Q475.4488,31.9137 474.105,33.3669 Q472.7769,34.82 469.7456,34.82 L467.1206,34.82 L467.1206,22.4294 Z " fill="#000000"/><text fill="#000000" font-family="sans-serif" font-size="14" lengthAdjust="spacing" textLength="60.498" x="483.98" y="33.6667">Quantity</text><line style="stroke:#181818;stroke-width:0.5;" x1="455.98" x2="546.478" y1="44.82" y2="44.82"/><text fill="#000000" font-family="sans-serif" font-size="14" lengthAdjust="spacing" textLength="70.834" x="460.98" y="61.8151">«typedef»</text><text fill="#000000" font-family="sans-serif" font-size="18" font-weight="bold" lengthAdjust="spacing" textLength="70.2422" x="460.98" y="81.8249">int64_t</text><line style="stroke:#181818;stroke-width:0.5;" x1="455.98" x2="546.478" y1="90.07" y2="90.07"/></g><!--class ID--><g class="entity" data-entity="ID" data-source-line="13" data-uid="ent0004" id="entity_ID"><rect fill="#F1F1F1" height="85.25" rx="3.5" ry="3.5" style="stroke:#181818;stroke-width:0.5;" width="95.0566" x="582.71" y="12.82"/><ellipse cx="619.3764" cy="28.82" fill="#7E57C2" rx="11" ry="11" style="stroke:#181818;stroke-width:1;"/><path d="M618.9701,24.6325 L618.9701,32.6169 L619.6264,32.6169 Q621.0639,32.6169 621.6732,31.7106 Q622.2982,30.7887 622.2982,28.6169 Q622.2982,26.445 621.6732,25.5387 Q621.0639,24.6325 619.6264,24.6325 L618.9701,24.6325 Z M616.517,22.4294 L619.142,22.4294 Q622.1732,22.4294 623.5014,23.8825 Q624.8451,25.32 624.8451,28.6169 Q624.8451,31.9137 623.5014,33.3669 Q622.1732,34.82 619.142,34.82 L616.517,34.82 L616.517,22.4294 Z " fill="#000000"/><text fill="#000000" font-family="sans-serif" font-size="14" lengthAdjust="spacing" textLength="14.9092" x="638.1911" y="33.6667">ID</text><line style="stroke:#181818;stroke-width:0.5;" x1="583.71" x2="676.7666" y1="44.82" y2="44.82"/><text fill="#000000" font-family="sans-serif" font-size="14" lengthAdjust="spacing" textLength="70.834" x="588.71" y="61.8151">«typedef»</text><text fill="#000000" font-family="sans-serif" font-size="18" font-weight="bold" lengthAdjust="spacing" textLength="83.0566" x="588.71" y="81.8249">uint64_t</text><line style="stroke:#181818;stroke-width:0.5;" x1="583.71" x2="676.7666" y1="90.07" y2="90.07"/></g><!--class OrderType--><g class="entity" data-entity="OrderType" data-source-line="18" data-uid="ent0005" id="entity_OrderType"><rect fill="#F1F1F1" height="80.5938" rx="3.5" ry="3.5" style="stroke:#181818;stroke-width:0.5;" width="106.3682" x="325.05" y="220.93"/><ellipse cx="340.05" cy="236.93" fill="#EB937F" rx="11" ry="11" style="stroke:#181818;stroke-width:1;"/><path d="M344.1594,242.93 L336.4406,242.93 L336.4406,230.5394 L344.1594,230.5394 L344.1594,232.6956 L338.8938,232.6956 L338.8938,235.3675 L343.6594,235.3675 L343.6594,237.5237 L338.8938,237.5237 L338.8938,240.7737 L344.1594,240.7737 L344.1594,242.93 Z " fill="#000000"/><text fill="#000000" font-family="sans-serif" font-size="14" lengthAdjust="spacing" textLength="74.3682" x="354.05" y="241.7767">OrderType</text><line style="stroke:#181818;stroke-width:0.5;" x1="326.05" x2="430.4182" y1="252.93" y2="252.93"/><text fill="#000000" font-family="sans-serif" font-size="14" lengthAdjust="spacing" textLength="57.9619" x="331.05" y="269.9251">MARKET</text><text fill="#000000" font-family="sans-serif" font-size="14" lengthAdjust="spacing" textLength="36.6885" x="331.05" y="286.222">LIMIT</text><line style="stroke:#181818;stroke-width:0.5;" x1="326.05" x2="430.4182" y1="293.5237" y2="293.5237"/></g><!--class OrderSide--><g class="entity" data-entity="OrderSide" data-source-line="23" data-uid="ent0006" id="entity_OrderSide"><rect fill="#F1F1F1" height="80.5938" rx="3.5" ry="3.5" style="stroke:#181818;stroke-width:0.5;" width="102.3076" x="466.08" y="220.93"/><ellipse cx="481.08" cy="236.93" fill="#EB937F" rx="11" ry="11" style="stroke:#181818;stroke-width:1;"/><path d="M485.1894,242.93 L477.4706,242.93 L477.4706,230.5394 L485.1894,230.5394 L485.1894,232.6956 L479.9238,232.6956 L479.9238,235.3675 L484.6894,235.3675 L484.6894,237.5237 L479.9238,237.5237 L479.9238,240.7737 L485.1894,240.7737 L485.1894,242.93 Z " fill="#000000"/><text fill="#000000" font-family="sans-serif" font-size="14" lengthAdjust="spacing" textLength="70.3076" x="495.08" y="241.7767">OrderSide</text><line style="stroke:#181818;stroke-width:0.5;" x1="467.08" x2="567.3876" y1="252.93" y2="252.93"/><text fill="#000000" font-family="sans-serif" font-size="14" lengthAdjust="spacing" textLength="28.4033" x="472.08" y="269.9251">BUY</text><text fill="#000000" font-family="sans-serif" font-size="14" lengthAdjust="spacing" textLength="33.332" x="472.08" y="286.222">SELL</text><line style="stroke:#181818;stroke-width:0.5;" x1="467.08" x2="567.3876" y1="293.5237" y2="293.5237"/></g><!--class MatchingEngine--><g class="entity" data-entity="MatchingEngine" data-source-line="28" data-uid="ent0007" id="entity_MatchingEngine"><rect fill="#F1F1F1" height="96.8906" rx="3.5" ry="3.5" style="stroke:#181818;stroke-width:0.5;" width="332.8311" x="967.82" y="7"/><ellipse cx="1073.8112" cy="23" fill="#ADD1B2" rx="11" ry="11" style="stroke:#181818;stroke-width:1;"/><path d="M1076.78,28.6406 Q1076.2018,28.9375 1075.5612,29.0781 Q1074.9206,29.2344 1074.2175,29.2344 Q1071.7175,29.2344 1070.3893,27.5938 Q1069.0768,25.9375 1069.0768,22.8125 Q1069.0768,19.6875 1070.3893,18.0313 Q1071.7175,16.375 1074.2175,16.375 Q1074.9206,16.375 1075.5612,16.5313 Q1076.2175,16.6875 1076.78,16.9844 L1076.78,19.7031 Q1076.155,19.125 1075.5612,18.8594 Q1074.9675,18.5781 1074.3425,18.5781 Q1072.9987,18.5781 1072.3112,19.6563 Q1071.6237,20.7188 1071.6237,22.8125 Q1071.6237,24.9063 1072.3112,25.9844 Q1072.9987,27.0469 1074.3425,27.0469 Q1074.9675,27.0469 1075.5612,26.7813 Q1076.155,26.5 1076.78,25.9219 L1076.78,28.6406 Z " fill="#000000"/><text fill="#000000" font-family="sans-serif" font-size="14" lengthAdjust="spacing" textLength="112.3486" x="1094.3112" y="27.8467">MatchingEngine</text><line style="stroke:#181818;stroke-width:0.5;" x1="968.82" x2="1299.6511" y1="39" y2="39"/><rect fill="none" height="6" style="stroke:#C82930;stroke-width:1;" width="6" x="975.82" y="49.6484"/><text fill="#000000" font-family="sans-serif" font-size="14" lengthAdjust="spacing" textLength="306.8311" x="987.82" y="55.9951">m_orderBookManager: OrderBookManager*</text><rect fill="none" height="6" style="stroke:#C82930;stroke-width:1;" width="6" x="975.82" y="65.9453"/><text fill="#000000" font-family="sans-serif" font-size="14" lengthAdjust="spacing" textLength="203.2939" x="987.82" y="72.292">m_orderParser: OrderParser*</text><rect fill="none" height="6" style="stroke:#C82930;stroke-width:1;" width="6" x="975.82" y="82.2422"/><text fill="#000000" font-family="sans-serif" font-size="14" lengthAdjust="spacing" textLength="206.5" x="987.82" y="88.5889">m_timeInForce: TimeInForce*</text><line style="stroke:#181818;stroke-width:0.5;" x1="968.82" x2="1299.6511" y1="95.8906" y2="95.8906"/></g><!--class TimeInForce--><g class="entity" data-entity="TimeInForce" data-source-line="34" data-uid="ent0008" id="entity_TimeInForce"><rect fill="#F1F1F1" height="64.2969" rx="3.5" ry="3.5" style="stroke:#181818;stroke-width:0.5;" width="447.7568" x="427.36" y="1041.99"/><ellipse cx="603.799" cy="1057.99" fill="#A9DCDF" rx="11" ry="11" style="stroke:#181818;stroke-width:1;"/><path d="M603.9083,1053.3338 L602.7521,1058.4119 L605.0802,1058.4119 L603.9083,1053.3338 Z M602.424,1051.0994 L605.4083,1051.0994 L608.7677,1063.49 L606.3146,1063.49 L605.549,1060.4275 L602.2677,1060.4275 L601.5177,1063.49 L599.0802,1063.49 L602.424,1051.0994 Z " fill="#000000"/><text fill="#000000" font-family="sans-serif" font-size="14" font-style="italic" lengthAdjust="spacing" textLength="86.3789" x="624.299" y="1062.8367">TimeInForce</text><line style="stroke:#181818;stroke-width:0.5;" x1="428.36" x2="874.1168" y1="1073.99" y2="1073.99"/><line style="stroke:#181818;stroke-width:0.5;" x1="428.36" x2="874.1168" y1="1081.99" y2="1081.99"/><ellipse cx="438.36" cy="1095.6384" fill="#84BE84" rx="3" ry="3" style="stroke:#038048;stroke-width:1;"/><text fill="#000000" font-family="sans-serif" font-size="14" font-style="italic" lengthAdjust="spacing" textLength="421.7568" x="447.36" y="1098.9851">void execute(OrderBook&amp;, OrderBookUpdate&amp;, Order&amp;) = 0</text></g><!--class GoodTillCancelledTIF--><g class="entity" data-entity="GoodTillCancelledTIF" data-source-line="38" data-uid="ent0009" id="entity_GoodTillCancelledTIF"><rect fill="#F1F1F1" height="64.2969" rx="3.5" ry="3.5" style="stroke:#181818;stroke-width:0.5;" width="406.4678" x="7" y="1166.28"/><ellipse cx="132.665" cy="1182.28" fill="#ADD1B2" rx="11" ry="11" style="stroke:#181818;stroke-width:1;"/><path d="M135.6338,1187.9206 Q135.0557,1188.2175 134.415,1188.3581 Q133.7744,1188.5144 133.0713,1188.5144 Q130.5713,1188.5144 129.2432,1186.8738 Q127.9307,1185.2175 127.9307,1182.0925 Q127.9307,1178.9675 129.2432,1177.3113 Q130.5713,1175.655 133.0713,1175.655 Q133.7744,1175.655 134.415,1175.8113 Q135.0713,1175.9675 135.6338,1176.2644 L135.6338,1178.9831 Q135.0088,1178.405 134.415,1178.1394 Q133.8213,1177.8581 133.1963,1177.8581 Q131.8525,1177.8581 131.165,1178.9363 Q130.4775,1179.9988 130.4775,1182.0925 Q130.4775,1184.1863 131.165,1185.2644 Q131.8525,1186.3269 133.1963,1186.3269 Q133.8213,1186.3269 134.415,1186.0613 Q135.0088,1185.78 135.6338,1185.2019 L135.6338,1187.9206 Z " fill="#000000"/><text fill="#000000" font-family="sans-serif" font-size="14" lengthAdjust="spacing" textLength="146.6377" x="153.165" y="1187.1267">GoodTillCancelledTIF</text><line style="stroke:#181818;stroke-width:0.5;" x1="8" x2="412.4678" y1="1198.28" y2="1198.28"/><line style="stroke:#181818;stroke-width:0.5;" x1="8" x2="412.4678" y1="1206.28" y2="1206.28"/><ellipse cx="18" cy="1219.9284" fill="#84BE84" rx="3" ry="3" style="stroke:#038048;stroke-width:1;"/><text fill="#000000" font-family="sans-serif" font-size="14" lengthAdjust="spacing" textLength="380.4678" x="27" y="1223.2751">void execute(OrderBook*, OrderBookUpdate*, Order*)</text></g><!--class ImmediateOrCancelledTIF--><g class="entity" data-entity="ImmediateOrCancelledTIF" data-source-line="42" data-uid="ent0011" id="entity_ImmediateOrCancelledTIF"><rect fill="#F1F1F1" height="64.2969" rx="3.5" ry="3.5" style="stroke:#181818;stroke-width:0.5;" width="406.4678" x="448" y="1166.28"/><ellipse cx="556.083" cy="1182.28" fill="#ADD1B2" rx="11" ry="11" style="stroke:#181818;stroke-width:1;"/><path d="M559.0518,1187.9206 Q558.4736,1188.2175 557.833,1188.3581 Q557.1924,1188.5144 556.4893,1188.5144 Q553.9893,1188.5144 552.6611,1186.8738 Q551.3486,1185.2175 551.3486,1182.0925 Q551.3486,1178.9675 552.6611,1177.3113 Q553.9893,1175.655 556.4893,1175.655 Q557.1924,1175.655 557.833,1175.8113 Q558.4893,1175.9675 559.0518,1176.2644 L559.0518,1178.9831 Q558.4268,1178.405 557.833,1178.1394 Q557.2393,1177.8581 556.6143,1177.8581 Q555.2705,1177.8581 554.583,1178.9363 Q553.8955,1179.9988 553.8955,1182.0925 Q553.8955,1184.1863 554.583,1185.2644 Q555.2705,1186.3269 556.6143,1186.3269 Q557.2393,1186.3269 557.833,1186.0613 Q558.4268,1185.78 559.0518,1185.2019 L559.0518,1187.9206 Z " fill="#000000"/><text fill="#000000" font-family="sans-serif" font-size="14" lengthAdjust="spacing" textLength="181.8018" x="576.583" y="1187.1267">ImmediateOrCancelledTIF</text><line style="stroke:#181818;stroke-width:0.5;" x1="449" x2="853.4678" y1="1198.28" y2="1198.28"/><line style="stroke:#181818;stroke-width:0.5;" x1="449" x2="853.4678" y1="1206.28" y2="1206.28"/><ellipse cx="459" cy="1219.9284" fill="#84BE84" rx="3" ry="3" style="stroke:#038048;stroke-width:1;"/><text fill="#000000" font-family="sans-serif" font-size="14" lengthAdjust="spacing" textLength="380.4678" x="468" y="1223.2751">void execute(OrderBook*, OrderBookUpdate*, Order*)</text></g><!--class ForceOrKillTIF--><g class="entity" data-entity="ForceOrKillTIF" data-source-line="46" data-uid="ent0013" id="entity_ForceOrKillTIF"><rect fill="#F1F1F1" height="64.2969" rx="3.5" ry="3.5" style="stroke:#181818;stroke-width:0.5;" width="406.4678" x="889" y="1166.28"/><ellipse cx="1039.4624" cy="1182.28" fill="#ADD1B2" rx="11" ry="11" style="stroke:#181818;stroke-width:1;"/><path d="M1042.4312,1187.9206 Q1041.853,1188.2175 1041.2124,1188.3581 Q1040.5718,1188.5144 1039.8687,1188.5144 Q1037.3687,1188.5144 1036.0405,1186.8738 Q1034.728,1185.2175 1034.728,1182.0925 Q1034.728,1178.9675 1036.0405,1177.3113 Q1037.3687,1175.655 1039.8687,1175.655 Q1040.5718,1175.655 1041.2124,1175.8113 Q1041.8687,1175.9675 1042.4312,1176.2644 L1042.4312,1178.9831 Q1041.8062,1178.405 1041.2124,1178.1394 Q1040.6187,1177.8581 1039.9937,1177.8581 Q1038.6499,1177.8581 1037.9624,1178.9363 Q1037.2749,1179.9988 1037.2749,1182.0925 Q1037.2749,1184.1863 1037.9624,1185.2644 Q1038.6499,1186.3269 1039.9937,1186.3269 Q1040.6187,1186.3269 1041.2124,1186.0613 Q1041.8062,1185.78 1042.4312,1185.2019 L1042.4312,1187.9206 Z " fill="#000000"/><text fill="#000000" font-family="sans-serif" font-size="14" lengthAdjust="spacing" textLength="97.043" x="1059.9624" y="1187.1267">ForceOrKillTIF</text><line style="stroke:#181818;stroke-width:0.5;" x1="890" x2="1294.4678" y1="1198.28" y2="1198.28"/><line style="stroke:#181818;stroke-width:0.5;" x1="890" x2="1294.4678" y1="1206.28" y2="1206.28"/><ellipse cx="900" cy="1219.9284" fill="#84BE84" rx="3" ry="3" style="stroke:#038048;stroke-width:1;"/><text fill="#000000" font-family="sans-serif" font-size="14" lengthAdjust="spacing" textLength="380.4678" x="909" y="1223.2751">void execute(OrderBook*, OrderBookUpdate*, Order*)</text></g><!--class Order--><g class="entity" data-entity="Order" data-source-line="50" data-uid="ent0015" id="entity_Order"><rect fill="#F1F1F1" height="308.75" rx="3.5" ry="3.5" style="stroke:#181818;stroke-width:0.5;" width="393.4043" x="961.53" y="673.24"/><ellipse cx="1133.9665" cy="689.24" fill="#A9DCDF" rx="11" ry="11" style="stroke:#181818;stroke-width:1;"/><path d="M1134.0759,684.5837 L1132.9196,689.6619 L1135.2478,689.6619 L1134.0759,684.5837 Z M1132.5915,682.3494 L1135.5759,682.3494 L1138.9353,694.74 L1136.4821,694.74 L1135.7165,691.6775 L1132.4353,691.6775 L1131.6853,694.74 L1129.2478,694.74 L1132.5915,682.3494 Z " fill="#000000"/><text fill="#000000" font-family="sans-serif" font-size="14" font-style="italic" lengthAdjust="spacing" textLength="40.0313" x="1154.4665" y="694.0867">Order</text><line style="stroke:#181818;stroke-width:0.5;" x1="962.53" x2="1353.9343" y1="705.24" y2="705.24"/><rect fill="none" height="6" style="stroke:#C82930;stroke-width:1;" width="6" x="969.53" y="715.8884"/><text fill="#000000" font-family="sans-serif" font-size="14" lengthAdjust="spacing" textLength="279.0566" x="981.53" y="722.2351">m_timestamp: boost::posix_time::ptime</text><rect fill="none" height="6" style="stroke:#C82930;stroke-width:1;" width="6" x="969.53" y="732.1853"/><text fill="#000000" font-family="sans-serif" font-size="14" lengthAdjust="spacing" textLength="151.6553" x="981.53" y="738.532">m_symbol: std::string</text><rect fill="none" height="6" style="stroke:#C82930;stroke-width:1;" width="6" x="969.53" y="748.4822"/><text fill="#000000" font-family="sans-serif" font-size="14" lengthAdjust="spacing" textLength="57.4902" x="981.53" y="754.8289">m_id: ID</text><rect fill="none" height="6" style="stroke:#C82930;stroke-width:1;" width="6" x="969.53" y="764.7791"/><text fill="#000000" font-family="sans-serif" font-size="14" lengthAdjust="spacing" textLength="99.0459" x="981.53" y="771.1257">m_price: Price</text><rect fill="none" height="6" style="stroke:#C82930;stroke-width:1;" width="6" x="969.53" y="781.0759"/><text fill="#000000" font-family="sans-serif" font-size="14" lengthAdjust="spacing" textLength="148.668" x="981.53" y="787.4226">m_quantity: Quantity</text><rect fill="none" height="6" style="stroke:#C82930;stroke-width:1;" width="6" x="969.53" y="797.3728"/><text fill="#000000" font-family="sans-serif" font-size="14" lengthAdjust="spacing" textLength="135.4473" x="981.53" y="803.7195">m_type: OrderType</text><rect fill="none" height="6" style="stroke:#C82930;stroke-width:1;" width="6" x="969.53" y="813.6697"/><text fill="#000000" font-family="sans-serif" font-size="14" lengthAdjust="spacing" textLength="128.7959" x="981.53" y="820.0164">m_side: OrderSide</text><rect fill="none" height="6" style="stroke:#C82930;stroke-width:1;" width="6" x="969.53" y="829.9666"/><text fill="#000000" font-family="sans-serif" font-size="14" lengthAdjust="spacing" textLength="206.5" x="981.53" y="836.3132">m_timeInForce: TimeInForce*</text><line style="stroke:#181818;stroke-width:0.5;" x1="962.53" x2="1353.9343" y1="843.615" y2="843.615"/><ellipse cx="972.53" cy="857.2634" fill="#84BE84" rx="3" ry="3" style="stroke:#038048;stroke-width:1;"/><text fill="#000000" font-family="sans-serif" font-size="14" lengthAdjust="spacing" textLength="23.7002" x="981.53" y="860.6101">id()</text><ellipse cx="972.53" cy="873.5603" fill="#84BE84" rx="3" ry="3" style="stroke:#038048;stroke-width:1;"/><text fill="#000000" font-family="sans-serif" font-size="14" lengthAdjust="spacing" textLength="45.7666" x="981.53" y="876.907">price()</text><ellipse cx="972.53" cy="889.8572" fill="#84BE84" rx="3" ry="3" style="stroke:#038048;stroke-width:1;"/><text fill="#000000" font-family="sans-serif" font-size="14" lengthAdjust="spacing" textLength="61.4824" x="981.53" y="893.2039">symbol()</text><ellipse cx="972.53" cy="906.1541" fill="#84BE84" rx="3" ry="3" style="stroke:#038048;stroke-width:1;"/><text fill="#000000" font-family="sans-serif" font-size="14" lengthAdjust="spacing" textLength="69.2891" x="981.53" y="909.5007">quantity()</text><ellipse cx="972.53" cy="922.4509" fill="#84BE84" rx="3" ry="3" style="stroke:#038048;stroke-width:1;"/><text fill="#000000" font-family="sans-serif" font-size="14" lengthAdjust="spacing" textLength="42.1982" x="981.53" y="925.7976">type()</text><ellipse cx="972.53" cy="938.7478" fill="#84BE84" rx="3" ry="3" style="stroke:#038048;stroke-width:1;"/><text fill="#000000" font-family="sans-serif" font-size="14" lengthAdjust="spacing" textLength="39.6074" x="981.53" y="942.0945">side()</text><ellipse cx="972.53" cy="955.0447" fill="#84BE84" rx="3" ry="3" style="stroke:#038048;stroke-width:1;"/><text fill="#000000" font-family="sans-serif" font-size="14" lengthAdjust="spacing" textLength="94.2402" x="981.53" y="958.3914">timeInForce()</text><ellipse cx="972.53" cy="971.3416" fill="#84BE84" rx="3" ry="3" style="stroke:#038048;stroke-width:1;"/><text fill="#000000" font-family="sans-serif" font-size="14" font-style="italic" lengthAdjust="spacing" textLength="367.4043" x="981.53" y="974.6882">OrderBookUpdate* match(OrderBook&amp;, Order&amp;) = 0</text></g><!--class MarketOrder--><g class="entity" data-entity="MarketOrder" data-source-line="70" data-uid="ent0016" id="entity_MarketOrder"><rect fill="#F1F1F1" height="64.2969" rx="3.5" ry="3.5" style="stroke:#181818;stroke-width:0.5;" width="304.0176" x="977.23" y="1041.99"/><ellipse cx="1080.6612" cy="1057.99" fill="#ADD1B2" rx="11" ry="11" style="stroke:#181818;stroke-width:1;"/><path d="M1083.6299,1063.6306 Q1083.0518,1063.9275 1082.4112,1064.0681 Q1081.7705,1064.2244 1081.0674,1064.2244 Q1078.5674,1064.2244 1077.2393,1062.5838 Q1075.9268,1060.9275 1075.9268,1057.8025 Q1075.9268,1054.6775 1077.2393,1053.0213 Q1078.5674,1051.365 1081.0674,1051.365 Q1081.7705,1051.365 1082.4112,1051.5213 Q1083.0674,1051.6775 1083.6299,1051.9744 L1083.6299,1054.6931 Q1083.0049,1054.115 1082.4112,1053.8494 Q1081.8174,1053.5681 1081.1924,1053.5681 Q1079.8487,1053.5681 1079.1612,1054.6463 Q1078.4737,1055.7088 1078.4737,1057.8025 Q1078.4737,1059.8963 1079.1612,1060.9744 Q1079.8487,1062.0369 1081.1924,1062.0369 Q1081.8174,1062.0369 1082.4112,1061.7713 Q1083.0049,1061.49 1083.6299,1060.9119 L1083.6299,1063.6306 Z " fill="#000000"/><text fill="#000000" font-family="sans-serif" font-size="14" lengthAdjust="spacing" textLength="88.6553" x="1101.1612" y="1062.8367">MarketOrder</text><line style="stroke:#181818;stroke-width:0.5;" x1="978.23" x2="1280.2476" y1="1073.99" y2="1073.99"/><line style="stroke:#181818;stroke-width:0.5;" x1="978.23" x2="1280.2476" y1="1081.99" y2="1081.99"/><ellipse cx="988.23" cy="1095.6384" fill="#84BE84" rx="3" ry="3" style="stroke:#038048;stroke-width:1;"/><text fill="#000000" font-family="sans-serif" font-size="14" lengthAdjust="spacing" textLength="278.0176" x="997.23" y="1098.9851">OrderBookUpdate* match(OrderBook&amp;)</text></g><!--class LimitOrder--><g class="entity" data-entity="LimitOrder" data-source-line="74" data-uid="ent0018" id="entity_LimitOrder"><rect fill="#F1F1F1" height="64.2969" rx="3.5" ry="3.5" style="stroke:#181818;stroke-width:0.5;" width="304.0176" x="1316.23" y="1041.99"/><ellipse cx="1426.6201" cy="1057.99" fill="#ADD1B2" rx="11" ry="11" style="stroke:#181818;stroke-width:1;"/><path d="M1429.5889,1063.6306 Q1429.0108,1063.9275 1428.3701,1064.0681 Q1427.7295,1064.2244 1427.0264,1064.2244 Q1424.5264,1064.2244 1423.1983,1062.5838 Q1421.8858,1060.9275 1421.8858,1057.8025 Q1421.8858,1054.6775 1423.1983,1053.0213 Q1424.5264,1051.365 1427.0264,1051.365 Q1427.7295,1051.365 1428.3701,1051.5213 Q1429.0264,1051.6775 1429.5889,1051.9744 L1429.5889,1054.6931 Q1428.9639,1054.115 1428.3701,1053.8494 Q1427.7764,1053.5681 1427.1514,1053.5681 Q1425.8076,1053.5681 1425.1201,1054.6463 Q1424.4326,1055.7088 1424.4326,1057.8025 Q1424.4326,1059.8963 1425.1201,1060.9744 Q1425.8076,1062.0369 1427.1514,1062.0369 Q1427.7764,1062.0369 1428.3701,1061.7713 Q1428.9639,1061.49 1429.5889,1060.9119 L1429.5889,1063.6306 Z " fill="#000000"/><text fill="#000000" font-family="sans-serif" font-size="14" lengthAdjust="spacing" textLength="74.7373" x="1447.1201" y="1062.8367">LimitOrder</text><line style="stroke:#181818;stroke-width:0.5;" x1="1317.23" x2="1619.2476" y1="1073.99" y2="1073.99"/><line style="stroke:#181818;stroke-width:0.5;" x1="1317.23" x2="1619.2476" y1="1081.99" y2="1081.99"/><ellipse cx="1327.23" cy="1095.6384" fill="#84BE84" rx="3" ry="3" style="stroke:#038048;stroke-width:1;"/><text fill="#000000" font-family="sans-serif" font-size="14" lengthAdjust="spacing" textLength="278.0176" x="1336.23" y="1098.9851">OrderBookUpdate* match(OrderBook&amp;)</text></g><!--class OrderBookUpdate--><g class="entity" data-entity="OrderBookUpdate" data-source-line="78" data-uid="ent0020" id="entity_OrderBookUpdate"><rect fill="#F1F1F1" height="129.4844" rx="3.5" ry="3.5" style="stroke:#181818;stroke-width:0.5;" width="305.0566" x="1389.71" y="762.87"/><ellipse cx="1475.2002" cy="778.87" fill="#ADD1B2" rx="11" ry="11" style="stroke:#181818;stroke-width:1;"/><path d="M1478.169,784.5106 Q1477.5909,784.8075 1476.9502,784.9481 Q1476.3096,785.1044 1475.6065,785.1044 Q1473.1065,785.1044 1471.7784,783.4637 Q1470.4659,781.8075 1470.4659,778.6825 Q1470.4659,775.5575 1471.7784,773.9012 Q1473.1065,772.245 1475.6065,772.245 Q1476.3096,772.245 1476.9502,772.4012 Q1477.6065,772.5575 1478.169,772.8544 L1478.169,775.5731 Q1477.544,774.995 1476.9502,774.7294 Q1476.3565,774.4481 1475.7315,774.4481 Q1474.3877,774.4481 1473.7002,775.5262 Q1473.0127,776.5887 1473.0127,778.6825 Q1473.0127,780.7762 1473.7002,781.8544 Q1474.3877,782.9169 1475.7315,782.9169 Q1476.3565,782.9169 1476.9502,782.6512 Q1477.544,782.37 1478.169,781.7919 L1478.169,784.5106 Z " fill="#000000"/><text fill="#000000" font-family="sans-serif" font-size="14" lengthAdjust="spacing" textLength="125.5762" x="1495.7002" y="783.7167">OrderBookUpdate</text><line style="stroke:#181818;stroke-width:0.5;" x1="1390.71" x2="1693.7666" y1="794.87" y2="794.87"/><rect fill="none" height="6" style="stroke:#C82930;stroke-width:1;" width="6" x="1397.71" y="805.5184"/><text fill="#000000" font-family="sans-serif" font-size="14" lengthAdjust="spacing" textLength="279.0566" x="1409.71" y="811.8651">m_timestamp: boost::posix_time::ptime</text><rect fill="none" height="6" style="stroke:#C82930;stroke-width:1;" width="6" x="1397.71" y="821.8153"/><text fill="#000000" font-family="sans-serif" font-size="14" lengthAdjust="spacing" textLength="151.6553" x="1409.71" y="828.162">m_symbol: std::string</text><rect fill="none" height="6" style="stroke:#C82930;stroke-width:1;" width="6" x="1397.71" y="838.1122"/><text fill="#000000" font-family="sans-serif" font-size="14" lengthAdjust="spacing" textLength="136.5889" x="1409.71" y="844.4589">m_asks: std::vector</text><rect fill="none" height="6" style="stroke:#C82930;stroke-width:1;" width="6" x="1397.71" y="854.4091"/><text fill="#000000" font-family="sans-serif" font-size="14" lengthAdjust="spacing" textLength="134.2715" x="1409.71" y="860.7557">m_bids: std::vector</text><line style="stroke:#181818;stroke-width:0.5;" x1="1390.71" x2="1693.7666" y1="868.0575" y2="868.0575"/><ellipse cx="1400.71" cy="881.7059" fill="#84BE84" rx="3" ry="3" style="stroke:#038048;stroke-width:1;"/><text fill="#000000" font-family="sans-serif" font-size="14" lengthAdjust="spacing" textLength="68.2158" x="1409.71" y="885.0526">stringify()</text></g><!--class Trade--><g class="entity" data-entity="Trade" data-source-line="86" data-uid="ent0021" id="entity_Trade"><rect fill="#F1F1F1" height="194.6719" rx="3.5" ry="3.5" style="stroke:#181818;stroke-width:0.5;" width="305.0566" x="674.71" y="163.89"/><ellipse cx="802.795" cy="179.89" fill="#ADD1B2" rx="11" ry="11" style="stroke:#181818;stroke-width:1;"/><path d="M805.7637,185.5306 Q805.1856,185.8275 804.545,185.9681 Q803.9043,186.1244 803.2012,186.1244 Q800.7012,186.1244 799.3731,184.4837 Q798.0606,182.8275 798.0606,179.7025 Q798.0606,176.5775 799.3731,174.9212 Q800.7012,173.265 803.2012,173.265 Q803.9043,173.265 804.545,173.4212 Q805.2012,173.5775 805.7637,173.8744 L805.7637,176.5931 Q805.1387,176.015 804.545,175.7494 Q803.9512,175.4681 803.3262,175.4681 Q801.9825,175.4681 801.295,176.5462 Q800.6075,177.6087 800.6075,179.7025 Q800.6075,181.7962 801.295,182.8744 Q801.9825,183.9369 803.3262,183.9369 Q803.9512,183.9369 804.545,183.6712 Q805.1387,183.39 805.7637,182.8119 L805.7637,185.5306 Z " fill="#000000"/><text fill="#000000" font-family="sans-serif" font-size="14" lengthAdjust="spacing" textLength="40.3867" x="823.295" y="184.7367">Trade</text><line style="stroke:#181818;stroke-width:0.5;" x1="675.71" x2="978.7666" y1="195.89" y2="195.89"/><rect fill="none" height="6" style="stroke:#C82930;stroke-width:1;" width="6" x="682.71" y="206.5384"/><text fill="#000000" font-family="sans-serif" font-size="14" lengthAdjust="spacing" textLength="279.0566" x="694.71" y="212.8851">m_timestamp: boost::posix_time::ptime</text><rect fill="none" height="6" style="stroke:#C82930;stroke-width:1;" width="6" x="682.71" y="222.8353"/><text fill="#000000" font-family="sans-serif" font-size="14" lengthAdjust="spacing" textLength="151.6553" x="694.71" y="229.182">m_symbol: std::string</text><rect fill="none" height="6" style="stroke:#C82930;stroke-width:1;" width="6" x="682.71" y="239.1322"/><text fill="#000000" font-family="sans-serif" font-size="14" lengthAdjust="spacing" textLength="96.9473" x="694.71" y="245.4789">m_tradeID: ID</text><rect fill="none" height="6" style="stroke:#C82930;stroke-width:1;" width="6" x="682.71" y="255.4291"/><text fill="#000000" font-family="sans-serif" font-size="14" lengthAdjust="spacing" textLength="144.3477" x="694.71" y="261.7757">m_makerOrderID: ID</text><rect fill="none" height="6" style="stroke:#C82930;stroke-width:1;" width="6" x="682.71" y="271.7259"/><text fill="#000000" font-family="sans-serif" font-size="14" lengthAdjust="spacing" textLength="136.1992" x="694.71" y="278.0726">m_takerOrderID: ID</text><rect fill="none" height="6" style="stroke:#C82930;stroke-width:1;" width="6" x="682.71" y="288.0228"/><text fill="#000000" font-family="sans-serif" font-size="14" lengthAdjust="spacing" textLength="103.4961" x="694.71" y="294.3695">m_price : Price</text><rect fill="none" height="6" style="stroke:#C82930;stroke-width:1;" width="6" x="682.71" y="304.3197"/><text fill="#000000" font-family="sans-serif" font-size="14" lengthAdjust="spacing" textLength="148.668" x="694.71" y="310.6664">m_quantity: Quantity</text><rect fill="none" height="6" style="stroke:#C82930;stroke-width:1;" width="6" x="682.71" y="320.6166"/><text fill="#000000" font-family="sans-serif" font-size="14" lengthAdjust="spacing" textLength="200.0195" x="694.71" y="326.9632">m_aggressorSide: OrderSide</text><line style="stroke:#181818;stroke-width:0.5;" x1="675.71" x2="978.7666" y1="334.265" y2="334.265"/><ellipse cx="685.71" cy="347.9134" fill="#84BE84" rx="3" ry="3" style="stroke:#038048;stroke-width:1;"/><text fill="#000000" font-family="sans-serif" font-size="14" lengthAdjust="spacing" textLength="68.2158" x="694.71" y="351.2601">stringify()</text></g><!--class Disseminator--><g class="entity" data-entity="Disseminator" data-source-line="98" data-uid="ent0022" id="entity_Disseminator"><rect fill="#F1F1F1" height="64.2969" rx="3.5" ry="3.5" style="stroke:#181818;stroke-width:0.5;" width="239.001" x="1014.73" y="229.08"/><ellipse cx="1083.6499" cy="245.08" fill="#ADD1B2" rx="11" ry="11" style="stroke:#181818;stroke-width:1;"/><path d="M1086.6187,250.7206 Q1086.0405,251.0175 1085.3999,251.1581 Q1084.7593,251.3144 1084.0562,251.3144 Q1081.5562,251.3144 1080.228,249.6737 Q1078.9155,248.0175 1078.9155,244.8925 Q1078.9155,241.7675 1080.228,240.1112 Q1081.5562,238.455 1084.0562,238.455 Q1084.7593,238.455 1085.3999,238.6112 Q1086.0562,238.7675 1086.6187,239.0644 L1086.6187,241.7831 Q1085.9937,241.205 1085.3999,240.9394 Q1084.8062,240.6581 1084.1812,240.6581 Q1082.8374,240.6581 1082.1499,241.7362 Q1081.4624,242.7987 1081.4624,244.8925 Q1081.4624,246.9862 1082.1499,248.0644 Q1082.8374,249.1269 1084.1812,249.1269 Q1084.8062,249.1269 1085.3999,248.8612 Q1085.9937,248.58 1086.6187,248.0019 L1086.6187,250.7206 Z " fill="#000000"/><text fill="#000000" font-family="sans-serif" font-size="14" lengthAdjust="spacing" textLength="92.6611" x="1104.1499" y="249.9267">Disseminator</text><line style="stroke:#181818;stroke-width:0.5;" x1="1015.73" x2="1252.731" y1="261.08" y2="261.08"/><line style="stroke:#181818;stroke-width:0.5;" x1="1015.73" x2="1252.731" y1="269.08" y2="269.08"/><ellipse cx="1025.73" cy="282.7284" fill="#84BE84" rx="3" ry="3" style="stroke:#038048;stroke-width:1;"/><text fill="#000000" font-family="sans-serif" font-size="14" lengthAdjust="spacing" textLength="213.001" x="1034.73" y="286.0751">publish(std::string, std::string)</text></g><!--class OrderBook--><g class="entity" data-entity="OrderBook" data-source-line="102" data-uid="ent0023" id="entity_OrderBook"><rect fill="#F1F1F1" height="194.6719" rx="3.5" ry="3.5" style="stroke:#181818;stroke-width:0.5;" width="307.1006" x="1380.68" y="418.56"/><ellipse cx="1492.5433" cy="434.56" fill="#ADD1B2" rx="11" ry="11" style="stroke:#181818;stroke-width:1;"/><path d="M1495.512,440.2006 Q1494.9339,440.4975 1494.2933,440.6381 Q1493.6527,440.7944 1492.9495,440.7944 Q1490.4495,440.7944 1489.1214,439.1537 Q1487.8089,437.4975 1487.8089,434.3725 Q1487.8089,431.2475 1489.1214,429.5912 Q1490.4495,427.935 1492.9495,427.935 Q1493.6527,427.935 1494.2933,428.0912 Q1494.9495,428.2475 1495.512,428.5444 L1495.512,431.2631 Q1494.887,430.685 1494.2933,430.4194 Q1493.6995,430.1381 1493.0745,430.1381 Q1491.7308,430.1381 1491.0433,431.2162 Q1490.3558,432.2787 1490.3558,434.3725 Q1490.3558,436.4662 1491.0433,437.5444 Q1491.7308,438.6069 1493.0745,438.6069 Q1493.6995,438.6069 1494.2933,438.3412 Q1494.887,438.06 1495.512,437.4819 L1495.512,440.2006 Z " fill="#000000"/><text fill="#000000" font-family="sans-serif" font-size="14" lengthAdjust="spacing" textLength="74.874" x="1513.0433" y="439.4067">OrderBook</text><line style="stroke:#181818;stroke-width:0.5;" x1="1381.68" x2="1686.7806" y1="450.56" y2="450.56"/><rect fill="none" height="6" style="stroke:#C82930;stroke-width:1;" width="6" x="1388.68" y="461.2084"/><text fill="#000000" font-family="sans-serif" font-size="14" lengthAdjust="spacing" textLength="281.1006" x="1400.68" y="467.5551">m_asks: map&lt;Price, std::list&lt;Order*&gt;&gt;</text><rect fill="none" height="6" style="stroke:#C82930;stroke-width:1;" width="6" x="1388.68" y="477.5053"/><text fill="#000000" font-family="sans-serif" font-size="14" lengthAdjust="spacing" textLength="278.7832" x="1400.68" y="483.852">m_bids: map&lt;Price, std::list&lt;Order*&gt;&gt;</text><rect fill="none" height="6" style="stroke:#C82930;stroke-width:1;" width="6" x="1388.68" y="493.8022"/><text fill="#000000" font-family="sans-serif" font-size="14" lengthAdjust="spacing" textLength="151.6553" x="1400.68" y="500.1489">m_symbol: std::string</text><line style="stroke:#181818;stroke-width:0.5;" x1="1381.68" x2="1686.7806" y1="507.4506" y2="507.4506"/><ellipse cx="1391.68" cy="521.0991" fill="#84BE84" rx="3" ry="3" style="stroke:#038048;stroke-width:1;"/><text fill="#000000" font-family="sans-serif" font-size="14" lengthAdjust="spacing" textLength="63.5879" x="1400.68" y="524.4457">bestBid()</text><ellipse cx="1391.68" cy="537.3959" fill="#84BE84" rx="3" ry="3" style="stroke:#038048;stroke-width:1;"/><text fill="#000000" font-family="sans-serif" font-size="14" lengthAdjust="spacing" textLength="66.1855" x="1400.68" y="540.7426">bestAsk()</text><ellipse cx="1391.68" cy="553.6928" fill="#84BE84" rx="3" ry="3" style="stroke:#038048;stroke-width:1;"/><text fill="#000000" font-family="sans-serif" font-size="14" lengthAdjust="spacing" textLength="201.8242" x="1400.68" y="557.0395">extractBestBid(Quantity qty)</text><ellipse cx="1391.68" cy="569.9897" fill="#84BE84" rx="3" ry="3" style="stroke:#038048;stroke-width:1;"/><text fill="#000000" font-family="sans-serif" font-size="14" lengthAdjust="spacing" textLength="204.4219" x="1400.68" y="573.3364">extractBestAsk(Quantity qty)</text><ellipse cx="1391.68" cy="586.2866" fill="#84BE84" rx="3" ry="3" style="stroke:#038048;stroke-width:1;"/><text fill="#000000" font-family="sans-serif" font-size="14" lengthAdjust="spacing" textLength="232.7295" x="1400.68" y="589.6332">applyUpdate(OrderBookUpdate*)</text><ellipse cx="1391.68" cy="602.5834" fill="#84BE84" rx="3" ry="3" style="stroke:#038048;stroke-width:1;"/><text fill="#000000" font-family="sans-serif" font-size="14" lengthAdjust="spacing" textLength="61.4824" x="1400.68" y="605.9301">symbol()</text></g><!--class OrderParser--><g class="entity" data-entity="OrderParser" data-source-line="115" data-uid="ent0024" id="entity_OrderParser"><rect fill="#F1F1F1" height="64.2969" rx="3.5" ry="3.5" style="stroke:#181818;stroke-width:0.5;" width="328.2852" x="1002.09" y="483.75"/><ellipse cx="1119.7467" cy="499.75" fill="#ADD1B2" rx="11" ry="11" style="stroke:#181818;stroke-width:1;"/><path d="M1122.7155,505.3906 Q1122.1374,505.6875 1121.4967,505.8281 Q1120.8561,505.9844 1120.153,505.9844 Q1117.653,505.9844 1116.3249,504.3437 Q1115.0124,502.6875 1115.0124,499.5625 Q1115.0124,496.4375 1116.3249,494.7812 Q1117.653,493.125 1120.153,493.125 Q1120.8561,493.125 1121.4967,493.2812 Q1122.153,493.4375 1122.7155,493.7344 L1122.7155,496.4531 Q1122.0905,495.875 1121.4967,495.6094 Q1120.903,495.3281 1120.278,495.3281 Q1118.9342,495.3281 1118.2467,496.4062 Q1117.5592,497.4687 1117.5592,499.5625 Q1117.5592,501.6562 1118.2467,502.7344 Q1118.9342,503.7969 1120.278,503.7969 Q1120.903,503.7969 1121.4967,503.5312 Q1122.0905,503.25 1122.7155,502.6719 L1122.7155,505.3906 Z " fill="#000000"/><text fill="#000000" font-family="sans-serif" font-size="14" lengthAdjust="spacing" textLength="84.4717" x="1140.2467" y="504.5967">OrderParser</text><line style="stroke:#181818;stroke-width:0.5;" x1="1003.09" x2="1329.3752" y1="515.75" y2="515.75"/><line style="stroke:#181818;stroke-width:0.5;" x1="1003.09" x2="1329.3752" y1="523.75" y2="523.75"/><ellipse cx="1013.09" cy="537.3984" fill="#84BE84" rx="3" ry="3" style="stroke:#038048;stroke-width:1;"/><text fill="#000000" font-family="sans-serif" font-size="14" lengthAdjust="spacing" textLength="302.2852" x="1022.09" y="540.7451">Order* createOrder(std::string orderString)</text></g><!--class OrderBookManager--><g class="entity" data-entity="OrderBookManager" data-source-line="118" data-uid="ent0028" id="entity_OrderBookManager"><rect fill="#F1F1F1" height="64.2969" rx="3.5" ry="3.5" style="stroke:#181818;stroke-width:0.5;" width="347.4121" x="1360.53" y="229.08"/><ellipse cx="1461.8659" cy="245.08" fill="#ADD1B2" rx="11" ry="11" style="stroke:#181818;stroke-width:1;"/><path d="M1464.8347,250.7206 Q1464.2566,251.0175 1463.6159,251.1581 Q1462.9753,251.3144 1462.2722,251.3144 Q1459.7722,251.3144 1458.4441,249.6737 Q1457.1316,248.0175 1457.1316,244.8925 Q1457.1316,241.7675 1458.4441,240.1112 Q1459.7722,238.455 1462.2722,238.455 Q1462.9753,238.455 1463.6159,238.6112 Q1464.2722,238.7675 1464.8347,239.0644 L1464.8347,241.7831 Q1464.2097,241.205 1463.6159,240.9394 Q1463.0222,240.6581 1462.3972,240.6581 Q1461.0534,240.6581 1460.3659,241.7362 Q1459.6784,242.7987 1459.6784,244.8925 Q1459.6784,246.9862 1460.3659,248.0644 Q1461.0534,249.1269 1462.3972,249.1269 Q1463.0222,249.1269 1463.6159,248.8612 Q1464.2097,248.58 1464.8347,248.0019 L1464.8347,250.7206 Z " fill="#000000"/><text fill="#000000" font-family="sans-serif" font-size="14" lengthAdjust="spacing" textLength="136.2402" x="1482.3659" y="249.9267">OrderBookManager</text><line style="stroke:#181818;stroke-width:0.5;" x1="1361.53" x2="1706.9421" y1="261.08" y2="261.08"/><line style="stroke:#181818;stroke-width:0.5;" x1="1361.53" x2="1706.9421" y1="269.08" y2="269.08"/><ellipse cx="1371.53" cy="282.7284" fill="#84BE84" rx="3" ry="3" style="stroke:#038048;stroke-width:1;"/><text fill="#000000" font-family="sans-serif" font-size="14" lengthAdjust="spacing" textLength="321.4121" x="1380.53" y="286.0751">OrderBook* getOrderBook(std::string symbol)</text></g><!--reverse link TimeInForce to GoodTillCancelledTIF--><g class="link" data-entity-1="TimeInForce" data-entity-2="GoodTillCancelledTIF" data-source-line="39" data-uid="lnk10" id="link_TimeInForce_GoodTillCancelledTIF"><path d="M520.0347,1111.5204 C454.4447,1129.7104 389.62,1147.68 324.04,1165.87" fill="none" id="TimeInForce-backto-GoodTillCancelledTIF" style="stroke:#191919;stroke-width:1;"/><polygon fill="none" points="537.38,1106.71,518.4312,1105.7386,521.6381,1117.3021,537.38,1106.71" style="stroke:#191919;stroke-width:1;"/></g><!--reverse link TimeInForce to ImmediateOrCancelledTIF--><g class="link" data-entity-1="TimeInForce" data-entity-2="ImmediateOrCancelledTIF" data-source-line="43" data-uid="lnk12" id="link_TimeInForce_ImmediateOrCancelledTIF"><path d="M651.23,1124.63 C651.23,1142.89 651.23,1147.8 651.23,1166.04" fill="none" id="TimeInForce-backto-ImmediateOrCancelledTIF" style="stroke:#191919;stroke-width:1;"/><polygon fill="none" points="651.23,1106.63,645.23,1124.63,657.23,1124.63,651.23,1106.63" style="stroke:#191919;stroke-width:1;"/></g><!--reverse link TimeInForce to ForceOrKillTIF--><g class="link" data-entity-1="TimeInForce" data-entity-2="ForceOrKillTIF" data-source-line="47" data-uid="lnk14" id="link_TimeInForce_ForceOrKillTIF"><path d="M782.4353,1111.5204 C848.0253,1129.7104 912.85,1147.68 978.43,1165.87" fill="none" id="TimeInForce-backto-ForceOrKillTIF" style="stroke:#191919;stroke-width:1;"/><polygon fill="none" points="765.09,1106.71,780.8319,1117.3021,784.0388,1105.7386,765.09,1106.71" style="stroke:#191919;stroke-width:1;"/></g><!--reverse link Order to MarketOrder--><g class="link" data-entity-1="Order" data-entity-2="MarketOrder" data-source-line="71" data-uid="lnk17" id="link_Order_MarketOrder"><path d="M1137.8744,1000.3052 C1135.2244,1022.6952 1134.86,1025.69 1132.96,1041.75" fill="none" id="Order-backto-MarketOrder" style="stroke:#191919;stroke-width:1;"/><polygon fill="none" points="1139.99,982.43,1131.9159,999.6,1143.8328,1001.0105,1139.99,982.43" style="stroke:#191919;stroke-width:1;"/></g><!--reverse link Order to LimitOrder--><g class="link" data-entity-1="Order" data-entity-2="LimitOrder" data-source-line="75" data-uid="lnk19" id="link_Order_LimitOrder"><path d="M1367.3729,993.5773 C1395.6329,1015.8673 1407.85,1025.51 1428.18,1041.54" fill="none" id="Order-backto-LimitOrder" style="stroke:#191919;stroke-width:1;"/><polygon fill="none" points="1353.24,982.43,1363.6571,998.2882,1371.0886,988.8663,1353.24,982.43" style="stroke:#191919;stroke-width:1;"/></g><!--link OrderParser to Order--><g class="link" data-entity-1="OrderParser" data-entity-2="Order" data-source-line="115" data-uid="lnk25" id="link_OrderParser_Order"><path codeLine="115" d="M1165.42,548.3 C1164.65,578.21 1163.585,619.562 1162.365,666.782" fill="none" id="OrderParser-to-Order" style="stroke:#191919;stroke-width:1;"/><polygon fill="#191919" points="1162.21,672.78,1166.4411,663.8863,1162.3391,667.7817,1158.4438,663.6797,1162.21,672.78" style="stroke:#191919;stroke-width:1;"/></g><!--link OrderBook to OrderBookUpdate--><g class="link" data-entity-1="OrderBook" data-entity-2="OrderBookUpdate" data-source-line="116" data-uid="lnk26" id="link_OrderBook_OrderBookUpdate"><path codeLine="116" d="M1536.73,613.62 C1537.98,662.07 1539.3051,713.412 1540.4151,756.382" fill="none" id="OrderBook-to-OrderBookUpdate" style="stroke:#191919;stroke-width:1;"/><polygon fill="#191919" points="1540.57,762.38,1544.3363,753.2797,1540.4409,757.3817,1536.3389,753.4863,1540.57,762.38" style="stroke:#191919;stroke-width:1;"/></g><!--reverse link OrderBook to Order--><g class="link" data-entity-1="OrderBook" data-entity-2="Order" data-source-line="117" data-uid="lnk27" id="link_OrderBook_Order"><path codeLine="117" d="M1407.5468,621.2485 C1384.5968,640.1485 1369.27,652.78 1344.72,673" fill="none" id="OrderBook-backto-Order" style="stroke:#191919;stroke-width:1;"/><polygon fill="#191919" points="1416.81,613.62,1409.6356,614.3465,1407.5468,621.2485,1414.7212,620.522,1416.81,613.62" style="stroke:#191919;stroke-width:1;"/></g><!--reverse link OrderBookManager to OrderBook--><g class="link" data-entity-1="OrderBookManager" data-entity-2="OrderBook" data-source-line="118" data-uid="lnk29" id="link_OrderBookManager_OrderBook"><path codeLine="118" d="M1534.23,305.72 C1534.23,336.87 1534.23,374.16 1534.23,418.31" fill="none" id="OrderBookManager-backto-OrderBook" style="stroke:#191919;stroke-width:1;"/><polygon fill="#191919" points="1534.23,293.72,1530.23,299.72,1534.23,305.72,1538.23,299.72,1534.23,293.72" style="stroke:#191919;stroke-width:1;"/></g><!--link Order to TimeInForce--><g class="link" data-entity-1="Order" data-entity-2="TimeInForce" data-source-line="119" data-uid="lnk30" id="link_Order_TimeInForce"><path codeLine="119" d="M961.13,923.68 C874.47,965.47 783.9545,1009.1239 722.1145,1038.9439" fill="none" id="Order-to-TimeInForce" style="stroke:#191919;stroke-width:1;"/><polygon fill="#191919" points="716.71,1041.55,726.5541,1041.2438,721.2137,1039.3783,723.0793,1034.0379,716.71,1041.55" style="stroke:#191919;stroke-width:1;"/></g><!--reverse link MatchingEngine to OrderBookManager--><g class="link" data-entity-1="MatchingEngine" data-entity-2="OrderBookManager" data-source-line="120" data-uid="lnk31" id="link_MatchingEngine_OrderBookManager"><path codeLine="120" d="M1238.9622,109.7976 C1314.2522,148.1576 1407.01,195.41 1472.24,228.65" fill="none" id="MatchingEngine-backto-OrderBookManager" style="stroke:#191919;stroke-width:1;"/><polygon fill="#191919" points="1228.27,104.35,1231.8002,110.6379,1238.9622,109.7976,1235.432,103.5098,1228.27,104.35" style="stroke:#191919;stroke-width:1;"/></g><!--reverse link MatchingEngine to TimeInForce--><g class="link" data-entity-1="MatchingEngine" data-entity-2="TimeInForce" data-source-line="121" data-uid="lnk32" id="link_MatchingEngine_TimeInForce"><path codeLine="121" d="M955.6438,73.6372 C834.1338,88.9172 696.13,115.59 657.23,163.89 C546.1,301.91 625.27,897.11 646.44,1041.49" fill="none" id="MatchingEngine-backto-TimeInForce" style="stroke:#191919;stroke-width:1;"/><polygon fill="#191919" points="967.55,72.14,961.0978,68.9199,955.6438,73.6372,962.096,76.8574,967.55,72.14" style="stroke:#191919;stroke-width:1;"/></g><!--reverse link MatchingEngine to OrderParser--><g class="link" data-entity-1="MatchingEngine" data-entity-2="OrderParser" data-source-line="122" data-uid="lnk33" id="link_MatchingEngine_OrderParser"><path codeLine="122" d="M1228.9635,111.5327 C1249.7035,127.6127 1259.73,140.25 1271.23,163.89 C1309.09,241.69 1296.45,275.8 1271.23,358.56 C1256.51,406.89 1221.32,453.82 1195.72,483.45" fill="none" id="MatchingEngine-backto-OrderParser" style="stroke:#191919;stroke-width:1;"/><polygon fill="#191919" points="1219.48,104.18,1221.7709,111.0175,1228.9635,111.5327,1226.6727,104.6952,1219.48,104.18" style="stroke:#191919;stroke-width:1;"/></g><!--reverse link MatchingEngine to Disseminator--><g class="link" data-entity-1="MatchingEngine" data-entity-2="Disseminator" data-source-line="123" data-uid="lnk34" id="link_MatchingEngine_Disseminator"><path codeLine="123" d="M1134.23,116.22 C1134.23,154.58 1134.23,195.33 1134.23,228.61" fill="none" id="MatchingEngine-backto-Disseminator" style="stroke:#191919;stroke-width:1;"/><polygon fill="#191919" points="1134.23,104.22,1130.23,110.22,1134.23,116.22,1138.23,110.22,1134.23,104.22" style="stroke:#191919;stroke-width:1;"/></g><!--link MatchingEngine to Trade--><g class="link" data-entity-1="MatchingEngine" data-entity-2="Trade" data-source-line="124" data-uid="lnk35" id="link_MatchingEngine_Trade"><path codeLine="124" d="M1062.26,104.22 C1035.49,121.99 1009.0787,139.5215 978.0787,160.1015" fill="none" id="MatchingEngine-to-Trade" style="stroke:#191919;stroke-width:1;"/><polygon fill="#191919" points="973.08,163.42,982.7905,161.7747,977.2456,160.6546,978.3658,155.1097,973.08,163.42" style="stroke:#191919;stroke-width:1;"/></g><!--SRC=[lLRVJzim47xFN-6ze1Aej8Tf3rP1eYjC4QrW8ppi2RcnQQt6IR1TH8Nut-TViPqqQ9qqrfVuxZxVdU- -i_j9hWaZW24kaWGZYOeI2G5kEIq8U4qc4xbh22QFv-V96Q2L_FhbGIPlCVJ75bMIojrXw6osXzj6G59j6RZXcF1S8HGKgD_YukVrPMwMysoHvLtW7SKjS7h_otplBkTp3R8X5qWMQrgjBgiLhLhe6B27Mc-VrlLcWIgq8XnQXv4cxM9lLPKyp0e18IaZMNLLyu90a0SXrPcWfP0S5HBOb2Apo-S4lBQOD_1SKmp82ocsaenyJaUd8R_xHfMKj9gZOt06FeSJVwzhdDEo_8QgWfGbmNbsfVn9Kk7XsCC1qxs0hIOz3i4onWYcodZ3_qiyu-c6NwlpVKoONg-C9MADxhEGY3KGBEjQI0YRMj0NerTh_V5OiMFBkeH0I0oXygfOw6qKGpKDNcpqn44xU5xvv6OB-YaBQQZvW65KGaWr3Z1CnW7qr0XNC8f7nsvfyl6IFOWNsxoyGcSJm2fki8HGNXTHlTy9THEfQTqdVP_Y2yGtHDhUj1I8EtNoPyyHf-QKqN_ch8Vz0EeWiH7EyamAMNDlML8yO54jCGxee-wOJpJd27z4UbBxpMOTUZEq8TnKfcUGxnaC0S5VJ0HQhJWHeZQyxu_0EoMOKI48enLIfVBDRhRBaehrA3hRQNpGeLv7PRJTOQYPcDJTLkLHJkmjerwzRhyEmxvNSfVrKlLk6WsmbY_4nikAs7hafWxcd-qdkHk0w9r34DGqvSuIUzGVYhtBGfKfUYh1U7nk2vQ4idbTy1DPq_6ulyEzpC6abTPid4LNMz9x-JjRd9yXp24kx966p36b-dQJe9wEFVwqnzgxS5AmSlUSbc9EkZhtsUYAtN6KWe8JyqGheUF3_A-vQsdz6m00]--></g></svg>